<?xml version="1.0" standalone="no"?>
<!DOCTYPE svg PUBLIC "-//W3C//DTD SVG 20010904//EN"
 "http://www.w3.org/TR/2001/REC-SVG-20010904/DTD/svg10.dtd">
<svg version="1.0" xmlns="http://www.w3.org/2000/svg"
 width="753.000000pt" height="753.000000pt" viewBox="0 0 753.000000 753.000000"
 preserveAspectRatio="xMidYMid meet">
<metadata>
Created by potrace 1.11, written by Peter Selinger 2001-2013
</metadata>
<g transform="translate(0.000000,753.000000) scale(0.100000,-0.100000)"
fill="#000000" stroke="none">
<path d="M571 5763 c1 -978 5 -1726 10 -1673 58 687 251 1309 569 1840 553
921 1411 1499 2360 1589 47 5 -587 9 -1427 10 l-1513 1 1 -1767z"/>
<path d="M3970 7523 c604 -57 1113 -263 1590 -641 139 -110 439 -416 550 -560
511 -665 802 -1469 843 -2337 2 -33 4 751 5 1743 l2 1802 -1512 -2 c-832 0
-1497 -3 -1478 -5z"/>
<path d="M3545 7104 c-194 -28 -259 -40 -374 -70 -745 -193 -1398 -762 -1790
-1559 -219 -444 -338 -882 -382 -1404 -13 -162 -7 -596 11 -751 130 -1099 669
-2019 1489 -2540 117 -74 363 -191 501 -238 361 -123 756 -159 1125 -101 116
18 311 68 433 111 219 78 517 243 705 390 372 293 684 686 901 1138 409 850
489 1859 222 2786 -127 441 -330 841 -610 1204 -96 125 -357 389 -476 483
-282 223 -614 394 -923 477 -215 57 -331 72 -577 75 -124 2 -238 1 -255 -1z
m1210 -1298 c191 -56 356 -191 441 -357 13 -26 34 -80 46 -121 l23 -73 3
-1290 3 -1290 186 -140 c102 -77 197 -149 210 -160 23 -20 24 -22 24 -222 1
-112 -1 -204 -3 -205 -2 -2 -106 75 -231 169 -125 95 -229 173 -231 173 -3 0
-15 -24 -29 -52 -53 -117 -195 -258 -320 -317 -138 -65 -130 -64 -714 -68
l-533 -4 0 1991 0 1991 533 -4 c474 -3 539 -5 592 -21z m-1413 -6 c63 -18 129
-70 162 -130 l31 -55 5 -508 5 -507 -177 0 -178 0 0 450 0 450 -445 0 -445 0
0 -1680 0 -1680 445 0 c245 0 444 3 444 7 -1 5 -1 225 0 491 l1 482 178 0 177
0 -2 -527 c-2 -337 -7 -542 -13 -568 -17 -61 -70 -126 -131 -160 l-54 -30
-580 -3 c-430 -2 -591 0 -624 9 -60 17 -131 76 -161 135 l-25 49 0 1795 0
1795 30 54 c32 59 92 108 153 128 48 15 1149 18 1204 3z"/>
<path d="M3980 3840 l0 -1680 263 0 c287 0 356 9 447 55 65 33 131 93 164 149
35 59 64 165 48 175 -7 4 -77 56 -157 117 -143 108 -145 109 -140 144 2 19 9
103 15 185 7 83 14 156 16 163 2 9 49 -21 130 -83 69 -53 132 -99 140 -102 12
-4 14 133 14 1038 0 574 -4 1080 -9 1124 -14 115 -43 185 -106 253 -115 124
-183 142 -552 142 l-273 0 0 -1680z"/>
<path d="M6950 3498 c0 -64 -23 -285 -44 -425 -95 -627 -349 -1258 -705 -1748
-118 -164 -233 -298 -375 -440 -505 -504 -1117 -805 -1786 -878 -19 -2 630 -5
1443 -5 l1477 -2 0 1775 c0 976 -2 1775 -5 1775 -3 0 -5 -24 -5 -52z"/>
<path d="M571 1768 l-1 -1768 1488 1 c910 1 1454 5 1402 10 -425 44 -869 208
-1255 464 -930 618 -1524 1699 -1624 2960 -5 55 -9 -695 -10 -1667z"/>
</g>
</svg>
